# 3ds Max Wavefront OBJ Exporter v0.97b - (c)2007 guruware
# File Created: 23.09.2020 23:32:56

mtllib floors.mtl

#
# object Plane001
#

v  -10.0444 0.0000 4.9550
v  -10.0444 0.0000 10.0011
v  -4.9984 0.0000 10.0011
v  -4.9984 0.0000 4.9550
v  0.0477 0.0000 10.0011
v  0.0477 0.0000 4.9550
v  5.0937 0.0000 10.0011
v  5.0937 0.0000 4.9550
v  10.1398 0.0000 10.0011
v  10.1398 0.0000 4.9550
v  -10.0444 0.0000 -0.0910
v  -4.9984 0.0000 -0.0910
v  0.0477 0.0000 -0.0910
v  5.0937 2.5385 -0.0910
v  10.1398 2.5385 -0.0910
v  5.0937 2.5385 -5.1371
v  10.1398 2.5385 -5.1371
v  -10.0444 4.8568 -10.1831
v  -10.0444 4.8568 -5.1371
v  -4.9984 4.8568 -5.1371
v  -4.9984 4.8568 -10.1831
v  0.0477 4.8568 -5.1371
v  0.0477 4.8568 -10.1831
v  5.0937 2.5385 -10.1831
v  10.1398 2.5385 -10.1831
# 25 vertices

vn 0.0000 1.0000 -0.0000
vn 0.0000 0.9882 0.1535
vn 0.0000 0.9730 0.2309
vn 0.1421 0.9899 -0.0000
vn 0.2137 0.9769 -0.0000
# 5 vertex normals

vt 0.0000 0.2500 0.0000
vt 0.0000 0.0000 0.0000
vt 0.2500 0.0000 0.0000
vt 0.2500 0.2500 0.0000
vt 0.5000 0.0000 0.0000
vt 0.5000 0.2500 0.0000
vt 0.7500 0.0000 0.0000
vt 0.7500 0.2500 0.0000
vt 1.0000 0.0000 0.0000
vt 1.0000 0.2500 0.0000
vt 0.0000 0.5000 0.0000
vt 0.2500 0.5000 0.0000
vt 0.5000 0.5000 0.0000
vt 0.7500 0.5000 0.0000
vt 1.0000 0.5000 0.0000
vt 0.7500 0.7500 0.0000
vt 1.0000 0.7500 0.0000
vt 0.0000 1.0000 0.0000
vt 0.0000 0.7500 0.0000
vt 0.2500 0.7500 0.0000
vt 0.2500 1.0000 0.0000
vt 0.5000 0.7500 0.0000
vt 0.5000 1.0000 0.0000
vt 0.7500 1.0000 0.0000
vt 1.0000 1.0000 0.0000
# 25 texture coords

g Plane001
usemtl 01___Default
s 1
f 1/1/1 2/2/1 3/3/1 4/4/1 
f 4/4/1 3/3/1 5/5/1 6/6/1 
f 6/6/1 5/5/1 7/7/1 8/8/2 
f 8/8/2 7/7/1 9/9/1 10/10/3 
f 11/11/1 1/1/1 4/4/1 12/12/1 
f 12/12/1 4/4/1 6/6/1 13/13/1 
f 14/14/3 8/8/2 10/10/3 15/15/3 
f 16/16/4 14/14/3 15/15/3 17/17/1 
f 18/18/1 19/19/1 20/20/1 21/21/1 
f 21/21/1 20/20/1 22/22/5 23/23/5 
f 23/23/5 22/22/5 16/16/4 24/24/5 
f 24/24/5 16/16/4 17/17/1 25/25/1 
# 12 polygons

