# 3ds Max Wavefront OBJ Exporter v0.97b - (c)2007 guruware
# File Created: 23.09.2020 22:41:28

mtllib floors.mtl

#
# object Box001
#

v  -6.2779 0.0000 8.6756
v  -6.2779 0.0000 -7.0997
v  5.3880 0.0000 -7.0997
v  5.3880 0.0000 8.6756
# 4 vertices

vn 0.0000 -1.0000 -0.0000
vn 0.0000 1.0000 -0.0000
vn 1.0000 0.0000 -0.0000
# 3 vertex normals

vt 1.0000 0.0000 0.0000
vt 1.0000 1.0000 0.0000
vt 0.0000 1.0000 0.0000
vt 0.0000 0.0000 0.0000
# 4 texture coords

g Box001
usemtl wire_108008136
s 2
f 1/1/1 2/2/1 3/3/1 4/4/1 
s 4
f 1/4/2 4/1/2 3/2/2 2/3/2 
s 8
f 1/4/3 4/4/3 4/4/3 1/4/3 
s 16
f 4/4/3 3/1/3 3/1/3 4/4/3 
s 32
f 3/1/3 2/1/3 2/1/3 3/1/3 
s 64
f 2/1/3 1/4/3 1/4/3 2/1/3 
# 6 polygons

#
# object Box002
#

v  -6.2779 6.3671 8.6756
v  5.3880 6.3671 8.6756
v  5.3880 6.3672 8.6756
v  -6.2779 6.3672 8.6756
v  5.3880 6.3671 6.2587
v  5.3880 6.3671 -7.0997
v  -6.2779 6.3671 -7.0997
v  -6.2779 6.3672 -7.0997
v  5.3880 6.3672 -7.0997
v  5.3880 6.3671 -3.5036
v  1.0942 6.3671 6.2587
v  1.0942 6.3671 -3.5036
v  1.0942 6.3672 6.2587
v  1.0942 6.3672 -3.5036
# 14 vertices

vn 0.0000 0.0000 1.0000
vn 1.0000 0.0000 -0.0000
vn 0.0000 0.0000 -1.0000
vn -1.0000 0.0000 -0.0000
vn 0.0000 -1.0000 -0.0000
vn 0.0000 -1.0000 0.0000
vn 0.0000 1.0000 -0.0000
vn 0.0000 1.0000 0.0000
# 8 vertex normals

vt 0.0000 0.0000 0.0000
vt 1.0000 0.0000 0.0000
vt 1.0000 1.0000 0.0000
vt 0.0000 1.0000 0.0000
vt 0.1532 0.0000 0.0000
vt 0.7720 1.0000 0.0000
vt 0.3681 0.1532 0.0000
vt 0.0000 0.1532 0.0000
vt 0.0000 0.7720 0.0000
vt 0.3681 0.7720 0.0000
vt 1.0000 0.1532 0.0000
vt 0.6319 0.1532 0.0000
vt 0.6319 0.7720 0.0000
vt 1.0000 0.7720 0.0000
# 14 texture coords

g Box002
usemtl wire_108008136
s 8
f 5/5/4 6/6/4 7/7/4 8/8/4 
s 16
f 6/5/5 9/9/5 7/8/5 
s 32
f 10/5/6 11/6/6 12/7/6 13/8/6 
s 64
f 11/5/7 5/6/7 8/7/7 12/8/7 
s 16
f 10/6/5 13/7/5 14/10/5 
s 2
f 15/11/8 9/12/8 6/5/8 5/6/8 11/7/9 10/8/9 14/13/9 16/14/8 
s 4
f 7/6/10 9/15/10 17/16/10 18/17/10 14/18/11 13/7/11 12/8/11 8/5/10 
# 5 polygons - 2 triangles

#
# object Box003
#

v  1.1023 0.0000 4.1849
v  1.1023 6.3765 -3.6216
v  5.3880 6.3765 -3.6216
v  5.3880 0.0000 4.1849
# 4 vertices

vn -0.0000 -0.7745 -0.6326
vn 0.0000 0.7745 0.6326
vn 1.0000 0.0000 -0.0000
# 3 vertex normals

vt 1.0000 0.0000 0.0000
vt 1.0000 1.0000 0.0000
vt 0.0000 1.0000 0.0000
vt 0.0000 0.0000 0.0000
# 4 texture coords

g Box003
usemtl wire_108008136
s 2
f 19/19/12 20/20/12 21/21/12 22/22/12 
s 4
f 19/22/13 22/19/13 21/20/13 20/21/13 
s 8
f 19/22/14 22/22/14 22/22/14 19/22/14 
s 16
f 22/22/14 21/19/14 21/19/14 22/22/14 
s 32
f 21/19/14 20/19/14 20/19/14 21/19/14 
s 64
f 20/19/14 19/22/14 19/22/14 20/19/14 
# 6 polygons

