# 3ds Max Wavefront OBJ Exporter v0.97b - (c)2007 guruware
# File Created: 23.09.2020 10:31:43

mtllib trees.mtl

#
# object Plane406
#

v  -25.4005 17.2747 59.7431
v  -41.8337 17.2747 61.6706
v  -41.8337 -11.2422 61.6706
v  -25.4005 -11.2422 59.7431
# 4 vertices

vn 0.0607 0.0000 0.9982
# 1 vertex normals

vt 1.0000 1.0000 0.0000
vt 0.0000 1.0000 0.0000
vt 0.0000 0.0000 0.0000
vt 1.0000 0.0000 0.0000
# 4 texture coords

g Plane406
usemtl _trees_tree_contryroadsdeftree
s 1
f 1/1/1 2/2/1 3/3/1 4/4/1 
# 1 polygons

#
# object Plane408
#

v  -2.8135 17.2747 64.5747
v  -19.2467 17.2747 66.5021
v  -19.2467 -11.2422 66.5021
v  -2.8135 -11.2422 64.5747
# 4 vertices

vn 0.0607 0.0000 0.9982
# 1 vertex normals

vt 1.0000 1.0000 0.0000
vt 0.0000 1.0000 0.0000
vt 0.0000 0.0000 0.0000
vt 1.0000 0.0000 0.0000
# 4 texture coords

g Plane408
usemtl _trees_tree_contryroadsdeftree
s 1
f 5/5/2 6/6/2 7/7/2 8/8/2 
# 1 polygons

#
# object Plane410
#

v  18.1993 17.2747 70.6814
v  1.7661 17.2747 72.6088
v  1.7661 -11.2422 72.6088
v  18.1993 -11.2422 70.6814
# 4 vertices

vn 0.0607 0.0000 0.9982
# 1 vertex normals

vt 1.0000 1.0000 0.0000
vt 0.0000 1.0000 0.0000
vt 0.0000 0.0000 0.0000
vt 1.0000 0.0000 0.0000
# 4 texture coords

g Plane410
usemtl _trees_tree_contryroadsdeftree
s 1
f 9/9/3 10/10/3 11/11/3 12/12/3 
# 1 polygons

#
# object Plane413
#

v  36.8069 17.2747 60.7302
v  38.8042 17.2747 77.1550
v  38.8042 -11.2422 77.1550
v  36.8069 -11.2422 60.7302
# 4 vertices

vn 0.9979 0.0000 -0.0649
# 1 vertex normals

vt 1.0000 1.0000 0.0000
vt 0.0000 1.0000 0.0000
vt 0.0000 0.0000 0.0000
vt 1.0000 0.0000 0.0000
# 4 texture coords

g Plane413
usemtl _trees_tree_contryroadsdeftree
s 1
f 13/13/4 14/14/4 15/15/4 16/16/4 
# 1 polygons

#
# object Plane415
#

v  36.8069 17.2747 40.8261
v  38.8042 17.2747 57.2509
v  38.8042 -11.2422 57.2509
v  36.8069 -11.2422 40.8261
# 4 vertices

vn 0.9979 0.0000 -0.0649
# 1 vertex normals

vt 1.0000 1.0000 0.0000
vt 0.0000 1.0000 0.0000
vt 0.0000 0.0000 0.0000
vt 1.0000 0.0000 0.0000
# 4 texture coords

g Plane415
usemtl _trees_tree_contryroadsdeftree
s 1
f 17/17/5 18/18/5 19/19/5 20/20/5 
# 1 polygons

#
# object Plane417
#

v  36.8069 17.2747 21.2134
v  38.8042 17.2747 37.6383
v  38.8042 -11.2422 37.6383
v  36.8069 -11.2422 21.2134
# 4 vertices

vn 0.9979 0.0000 -0.0649
# 1 vertex normals

vt 1.0000 1.0000 0.0000
vt 0.0000 1.0000 0.0000
vt 0.0000 0.0000 0.0000
vt 1.0000 0.0000 0.0000
# 4 texture coords

g Plane417
usemtl _trees_tree_contryroadsdeftree
s 1
f 21/21/6 22/22/6 23/23/6 24/24/6 
# 1 polygons

#
# object Plane419
#

v  36.8069 17.2747 -0.3378
v  38.8042 17.2747 16.0870
v  38.8042 -11.2422 16.0870
v  36.8069 -11.2422 -0.3378
# 4 vertices

vn 0.9979 0.0000 -0.0649
# 1 vertex normals

vt 1.0000 1.0000 0.0000
vt 0.0000 1.0000 0.0000
vt 0.0000 0.0000 0.0000
vt 1.0000 0.0000 0.0000
# 4 texture coords

g Plane419
usemtl _trees_tree_contryroadsdeftree
s 1
f 25/25/7 26/26/7 27/27/7 28/28/7 
# 1 polygons

#
# object Plane421
#

v  38.8869 17.2747 -39.4375
v  40.8842 17.2747 -23.0126
v  40.8842 -11.2422 -23.0126
v  38.8869 -11.2422 -39.4375
# 4 vertices

vn 0.9979 0.0000 -0.0649
# 1 vertex normals

vt 1.0000 1.0000 0.0000
vt 0.0000 1.0000 0.0000
vt 0.0000 0.0000 0.0000
vt 1.0000 0.0000 0.0000
# 4 texture coords

g Plane421
usemtl _trees_tree_contryroadsdeftree
s 1
f 29/29/8 30/30/8 31/31/8 32/32/8 
# 1 polygons

#
# object Plane427
#

v  38.8869 17.2747 -19.5334
v  40.8842 17.2747 -3.1085
v  40.8842 -11.2422 -3.1085
v  38.8869 -11.2422 -19.5334
# 4 vertices

vn 0.9979 0.0000 -0.0649
# 1 vertex normals

vt 1.0000 1.0000 0.0000
vt 0.0000 1.0000 0.0000
vt 0.0000 0.0000 0.0000
vt 1.0000 0.0000 0.0000
# 4 texture coords

g Plane427
usemtl _trees_tree_contryroadsdeftree
s 1
f 33/33/9 34/34/9 35/35/9 36/36/9 
# 1 polygons

#
# object Plane428
#

v  -43.8071 24.1886 27.0697
v  -44.1446 24.1886 52.4177
v  -44.1446 -19.5029 52.4177
v  -43.8071 -19.5029 27.0697
# 4 vertices

vn 0.9976 0.0000 0.0693
# 1 vertex normals

vt 1.0000 1.0000 0.0000
vt 0.0000 1.0000 0.0000
vt 0.0000 0.0000 0.0000
vt 1.0000 0.0000 0.0000
# 4 texture coords

g Plane428
usemtl _trees_tree_contryroadsdeftree
s 1
f 37/37/10 38/38/10 39/39/10 40/40/10 
# 1 polygons

#
# object Plane429
#

v  -43.8071 24.1886 -5.9507
v  -44.1446 24.1886 19.3973
v  -44.1446 -19.5029 19.3973
v  -43.8071 -19.5029 -5.9507
# 4 vertices

vn 0.9976 0.0000 0.0693
# 1 vertex normals

vt 1.0000 1.0000 0.0000
vt 0.0000 1.0000 0.0000
vt 0.0000 0.0000 0.0000
vt 1.0000 0.0000 0.0000
# 4 texture coords

g Plane429
usemtl _trees_tree_contryroadsdeftree
s 1
f 41/41/11 42/42/11 43/43/11 44/44/11 
# 1 polygons

#
# object Plane431
#

v  -43.8071 24.1886 -44.9704
v  -44.1446 24.1886 -19.6224
v  -44.1446 -19.5029 -19.6224
v  -43.8071 -19.5029 -44.9704
# 4 vertices

vn 0.9976 0.0000 0.0693
# 1 vertex normals

vt 1.0000 1.0000 0.0000
vt 0.0000 1.0000 0.0000
vt 0.0000 0.0000 0.0000
vt 1.0000 0.0000 0.0000
# 4 texture coords

g Plane431
usemtl _trees_tree_contryroadsdeftree
s 1
f 45/45/12 46/46/12 47/47/12 48/48/12 
# 1 polygons

#
# object Plane433
#

v  -5.8873 24.1886 -47.6557
v  -31.2376 24.1886 -47.6269
v  -31.2376 -19.5029 -47.6269
v  -5.8873 -19.5029 -47.6557
# 4 vertices

vn -0.0549 0.0000 0.9985
# 1 vertex normals

vt 1.0000 1.0000 0.0000
vt 0.0000 1.0000 0.0000
vt 0.0000 0.0000 0.0000
vt 1.0000 0.0000 0.0000
# 4 texture coords

g Plane433
usemtl _trees_tree_contryroadsdeftree
s 1
f 49/49/13 50/50/13 51/51/13 52/52/13 
# 1 polygons

#
# object Plane436
#

v  -24.1135 24.1886 -49.3957
v  -49.4638 24.1886 -49.3669
v  -49.4638 -19.5029 -49.3669
v  -24.1135 -19.5029 -49.3957
# 4 vertices

vn -0.0549 0.0000 0.9985
# 1 vertex normals

vt 1.0000 1.0000 0.0000
vt 0.0000 1.0000 0.0000
vt 0.0000 0.0000 0.0000
vt 1.0000 0.0000 0.0000
# 4 texture coords

g Plane436
usemtl _trees_tree_contryroadsdeftree
s 1
f 53/53/14 54/54/14 55/55/14 56/56/14 
# 1 polygons

#
# object Plane437
#

v  10.2698 24.1886 -49.3957
v  -15.0805 24.1886 -49.3669
v  -15.0805 -19.5029 -49.3669
v  10.2698 -19.5029 -49.3957
# 4 vertices

vn -0.0549 0.0000 0.9985
# 1 vertex normals

vt 1.0000 1.0000 0.0000
vt 0.0000 1.0000 0.0000
vt 0.0000 0.0000 0.0000
vt 1.0000 0.0000 0.0000
# 4 texture coords

g Plane437
usemtl _trees_tree_contryroadsdeftree
s 1
f 57/57/15 58/58/15 59/59/15 60/60/15 
# 1 polygons

#
# object Plane438
#

v  28.4959 24.1886 -47.6557
v  3.1456 24.1886 -47.6269
v  3.1456 -19.5029 -47.6269
v  28.4959 -19.5029 -47.6557
# 4 vertices

vn -0.0549 0.0000 0.9985
# 1 vertex normals

vt 1.0000 1.0000 0.0000
vt 0.0000 1.0000 0.0000
vt 0.0000 0.0000 0.0000
vt 1.0000 0.0000 0.0000
# 4 texture coords

g Plane438
usemtl _trees_tree_contryroadsdeftree
s 1
f 61/61/16 62/62/16 63/63/16 64/64/16 
# 1 polygons

#
# object Plane442
#

v  -14.4198 17.2747 65.7738
v  -30.0637 17.2747 60.3854
v  -30.0637 -11.2422 60.3854
v  -14.4198 -11.2422 65.7738
# 4 vertices

vn -0.3781 0.0000 0.9258
# 1 vertex normals

vt 1.0000 1.0000 0.0000
vt 0.0000 1.0000 0.0000
vt 0.0000 0.0000 0.0000
vt 1.0000 0.0000 0.0000
# 4 texture coords

g Plane442
usemtl _trees_tree_contryroadsdeftree
s 1
f 65/65/17 66/66/17 67/67/17 68/68/17 
# 1 polygons

#
# object Plane443
#

v  7.4071 17.2747 71.1774
v  -8.2368 17.2747 65.7890
v  -8.2368 -11.2422 65.7890
v  7.4071 -11.2422 71.1774
# 4 vertices

vn -0.3781 0.0000 0.9258
# 1 vertex normals

vt 1.0000 1.0000 0.0000
vt 0.0000 1.0000 0.0000
vt 0.0000 0.0000 0.0000
vt 1.0000 0.0000 0.0000
# 4 texture coords

g Plane443
usemtl _trees_tree_contryroadsdeftree
s 1
f 69/69/18 70/70/18 71/71/18 72/72/18 
# 1 polygons

#
# object Plane447
#

v  42.0692 17.2747 81.7740
v  25.6360 17.2747 83.7015
v  25.6360 -11.2422 83.7015
v  42.0692 -11.2422 81.7740
# 4 vertices

vn 0.0607 0.0000 0.9982
# 1 vertex normals

vt 1.0000 1.0000 0.0000
vt 0.0000 1.0000 0.0000
vt 0.0000 0.0000 0.0000
vt 1.0000 0.0000 0.0000
# 4 texture coords

g Plane447
usemtl _trees_tree_contryroadsdeftree
s 1
f 73/73/19 74/74/19 75/75/19 76/76/19 
# 1 polygons

#
# object Line001
#

v  29.2605 4.4432 -41.4771
v  29.2605 -0.1446 -41.4771
v  -40.7685 -0.1446 -41.3842
v  -40.7685 4.4432 -41.3842
v  31.8865 -0.1446 -31.8149
v  31.8865 4.4432 -31.8149
v  38.0141 4.4432 -32.1866
v  38.0141 -0.1446 -32.1866
v  38.0141 -0.1446 -15.0919
v  38.0141 4.4432 -15.0919
v  36.4822 4.4432 -6.6375
v  36.4822 -0.1446 -6.6375
v  36.2634 4.4432 22.7593
v  36.2634 -0.1446 22.7593
v  36.4822 4.4432 55.3665
v  36.4822 -0.1446 55.3665
v  24.6648 4.4432 69.1534
v  24.6648 -0.1446 69.1534
v  -21.9482 4.4432 57.9926
v  -21.9482 -0.1446 57.9926
v  -42.5192 4.4432 56.8984
v  -42.5192 -0.1446 56.8984
v  -42.0816 -0.1446 -29.2136
v  -42.0816 4.4432 -29.2136
# 24 vertices

vn 0.6642 0.0000 -0.7476
vn -0.6919 0.0000 -0.7220
vn 0.6108 0.0000 -0.7918
vn 0.6552 0.0000 -0.7555
vn 0.9993 0.0000 0.0384
vn 0.9991 0.0000 0.0435
vn 1.0000 0.0000 0.0018
vn 0.9390 0.0000 0.3438
vn 0.3085 0.0000 0.9512
vn -0.1436 0.0000 0.9896
vn -0.7270 0.0000 0.6866
vn -0.9997 0.0000 -0.0249
# 12 vertex normals

vt 2.7946 1.0000 1.0000
vt 2.7946 -0.0000 1.0000
vt 25.1511 -0.0000 0.9985
vt 25.1511 1.0000 0.9985
vt 21.8009 -0.0000 0.9239
vt 25.7100 -0.0000 0.8913
vt 25.7100 1.0000 0.8913
vt 21.8009 1.0000 0.9239
vt 1.9562 1.0000 0.8480
vt 0.0000 1.0000 0.8538
vt 0.0000 -0.0000 0.8538
vt 1.9562 -0.0000 0.8480
vt 15.0351 -0.0000 1.0000
vt 21.9512 -0.0000 1.0000
vt 21.9512 1.0000 1.0000
vt 15.0351 1.0000 1.0000
vt 11.6146 1.0000 0.9810
vt 11.6146 -0.0000 0.9810
vt 7.9686 1.0000 0.9783
vt 7.9686 -0.0000 0.9783
vt 2.3680 1.0000 0.9810
vt 2.3680 -0.0000 0.9810
vt 0.0000 1.0000 0.8342
vt 0.0000 -0.0000 0.8342
vt 21.4483 1.0000 0.0000
vt 6.5672 1.0000 0.0746
vt 6.5672 -0.0000 0.0746
vt 21.4483 -0.0000 0.0000
vt 0.0000 1.0000 0.0819
vt 0.0000 -0.0000 0.0819
vt 4.9616 -0.0000 0.0054
vt 23.6051 -0.0000 0.0000
vt 23.6051 1.0000 0.0000
vt 4.9616 1.0000 0.0054
vt 0.0376 1.0000 0.0217
vt 0.0376 -0.0000 0.0217
# 36 texture coords

g Line001
usemtl _treesMaterial__215
s 2049
f 77/77/20 78/78/20 79/79/21 80/80/21 
s 2056
f 81/81/22 78/82/20 77/83/20 82/84/22 
s 2049
f 82/85/22 83/86/23 84/87/23 81/88/22 
s 2056
f 85/89/24 84/90/23 83/91/23 86/92/24 
s 2049
f 86/92/24 87/93/25 88/94/25 85/89/24 
s 2056
f 87/93/25 89/95/26 90/96/26 88/94/25 
s 2049
f 89/95/26 91/97/27 92/98/27 90/96/26 
s 2056
f 91/97/27 93/99/28 94/100/28 92/98/27 
s 2049
f 93/101/28 95/102/29 96/103/29 94/104/28 
s 2056
f 95/102/29 97/105/30 98/106/30 96/103/29 
s 2049
f 99/107/31 98/108/30 97/109/30 100/110/31 
s 2056
f 99/107/31 100/110/31 80/111/21 79/112/21 
# 12 polygons

#
# object Plane448
#

v  -45.5716 42.8012 -75.4368
v  -46.1688 42.8012 -30.5841
v  -46.1688 -34.5099 -30.5841
v  -45.5716 -34.5099 -75.4368
# 4 vertices

vn 0.9976 0.0000 0.0693
# 1 vertex normals

vt 1.0000 1.0000 0.0000
vt 0.0000 1.0000 0.0000
vt 0.0000 0.0000 0.0000
vt 1.0000 0.0000 0.0000
# 4 texture coords

g Plane448
usemtl _trees_tree_contryroadsdeftree
s 1
f 101/113/32 102/114/32 103/115/32 104/116/32 
# 1 polygons

#
# object Plane449
#

v  -45.5716 42.8012 -33.2346
v  -46.1688 42.8012 11.6181
v  -46.1688 -34.5099 11.6181
v  -45.5716 -34.5099 -33.2346
# 4 vertices

vn 0.9976 0.0000 0.0693
# 1 vertex normals

vt 1.0000 1.0000 0.0000
vt 0.0000 1.0000 0.0000
vt 0.0000 0.0000 0.0000
vt 1.0000 0.0000 0.0000
# 4 texture coords

g Plane449
usemtl _trees_tree_contryroadsdeftree
s 1
f 105/117/33 106/118/33 107/119/33 108/120/33 
# 1 polygons

#
# object Plane450
#

v  -48.6718 42.8012 -0.8107
v  -49.2690 42.8012 44.0420
v  -49.2690 -34.5099 44.0420
v  -48.6718 -34.5099 -0.8107
# 4 vertices

vn 0.9976 0.0000 0.0693
# 1 vertex normals

vt 1.0000 1.0000 0.0000
vt 0.0000 1.0000 0.0000
vt 0.0000 0.0000 0.0000
vt 1.0000 0.0000 0.0000
# 4 texture coords

g Plane450
usemtl _trees_tree_contryroadsdeftree
s 1
f 109/121/34 110/122/34 111/123/34 112/124/34 
# 1 polygons

#
# object Plane451
#

v  -67.5677 42.8012 48.2220
v  -30.7413 42.8012 73.8334
v  -30.7413 -34.5099 73.8334
v  -67.5677 -34.5099 48.2220
# 4 vertices

vn 0.6161 0.0000 -0.7877
# 1 vertex normals

vt 1.0000 1.0000 0.0000
vt 0.0000 1.0000 0.0000
vt 0.0000 0.0000 0.0000
vt 1.0000 0.0000 0.0000
# 4 texture coords

g Plane451
usemtl _trees_tree_contryroadsdeftree
s 1
f 113/125/35 114/126/35 115/127/35 116/128/35 
# 1 polygons

#
# object Plane452
#

v  -42.4852 42.8012 74.0423
v  1.4094 42.8012 83.2825
v  1.4094 -34.5099 83.2825
v  -42.4852 -34.5099 74.0423
# 4 vertices

vn 0.2605 0.0000 -0.9655
# 1 vertex normals

vt 1.0000 1.0000 0.0000
vt 0.0000 1.0000 0.0000
vt 0.0000 0.0000 0.0000
vt 1.0000 0.0000 0.0000
# 4 texture coords

g Plane452
usemtl _trees_tree_contryroadsdeftree
s 1
f 117/129/36 118/130/36 119/131/36 120/132/36 
# 1 polygons

#
# object Plane453
#

v  -8.7981 42.8012 88.1778
v  35.9933 42.8012 85.7592
v  35.9933 -34.5099 85.7592
v  -8.7981 -34.5099 88.1778
# 4 vertices

vn 0.0021 0.0000 -1.0000
# 1 vertex normals

vt 1.0000 1.0000 0.0000
vt 0.0000 1.0000 0.0000
vt 0.0000 0.0000 0.0000
vt 1.0000 0.0000 0.0000
# 4 texture coords

g Plane453
usemtl _trees_tree_contryroadsdeftree
s 1
f 121/133/37 122/134/37 123/135/37 124/136/37 
# 1 polygons

#
# object Plane454
#

v  25.3861 42.8012 96.0139
v  60.5722 42.8012 68.1919
v  60.5722 -34.5099 68.1919
v  25.3861 -34.5099 96.0139
# 4 vertices

vn -0.5753 0.0000 -0.8179
# 1 vertex normals

vt 1.0000 1.0000 0.0000
vt 0.0000 1.0000 0.0000
vt 0.0000 0.0000 0.0000
vt 1.0000 0.0000 0.0000
# 4 texture coords

g Plane454
usemtl _trees_tree_contryroadsdeftree
s 1
f 125/137/38 126/138/38 127/139/38 128/140/38 
# 1 polygons

#
# object Plane455
#

v  48.5888 42.8012 30.2377
v  47.9916 42.8012 75.0904
v  47.9916 -34.5099 75.0904
v  48.5888 -34.5099 30.2377
# 4 vertices

vn 0.9976 0.0000 0.0693
# 1 vertex normals

vt 1.0000 1.0000 0.0000
vt 0.0000 1.0000 0.0000
vt 0.0000 0.0000 0.0000
vt 1.0000 0.0000 0.0000
# 4 texture coords

g Plane455
usemtl _trees_tree_contryroadsdeftree
s 1
f 129/141/39 130/142/39 131/143/39 132/144/39 
# 1 polygons

#
# object Plane456
#

v  51.6890 42.8012 -2.1861
v  51.0918 42.8012 42.6666
v  51.0918 -34.5099 42.6666
v  51.6890 -34.5099 -2.1861
# 4 vertices

vn 0.9976 0.0000 0.0693
# 1 vertex normals

vt 1.0000 1.0000 0.0000
vt 0.0000 1.0000 0.0000
vt 0.0000 0.0000 0.0000
vt 1.0000 0.0000 0.0000
# 4 texture coords

g Plane456
usemtl _trees_tree_contryroadsdeftree
s 1
f 133/145/40 134/146/40 135/147/40 136/148/40 
# 1 polygons

#
# object Plane457
#

v  51.6890 42.8012 -44.3883
v  51.0918 42.8012 0.4644
v  51.0918 -34.5099 0.4644
v  51.6890 -34.5099 -44.3883
# 4 vertices

vn 0.9976 0.0000 0.0693
# 1 vertex normals

vt 1.0000 1.0000 0.0000
vt 0.0000 1.0000 0.0000
vt 0.0000 0.0000 0.0000
vt 1.0000 0.0000 0.0000
# 4 texture coords

g Plane457
usemtl _trees_tree_contryroadsdeftree
s 1
f 137/149/41 138/150/41 139/151/41 140/152/41 
# 1 polygons

#
# object Plane458
#

v  58.3791 42.8012 -18.4764
v  55.7363 42.8012 -63.2551
v  55.7363 -34.5099 -63.2551
v  58.3791 -34.5099 -18.4764
# 4 vertices

vn -1.0000 0.0000 0.0029
# 1 vertex normals

vt 1.0000 1.0000 0.0000
vt 0.0000 1.0000 0.0000
vt 0.0000 0.0000 0.0000
vt 1.0000 0.0000 0.0000
# 4 texture coords

g Plane458
usemtl _trees_tree_contryroadsdeftree
s 1
f 141/153/42 142/154/42 143/155/42 144/156/42 
# 1 polygons

#
# object Plane459
#

v  12.5812 42.8012 -56.4397
v  57.4363 42.8012 -56.0671
v  57.4363 -34.5099 -56.0671
v  12.5812 -34.5099 -56.4397
# 4 vertices

vn 0.0643 0.0000 -0.9979
# 1 vertex normals

vt 1.0000 1.0000 0.0000
vt 0.0000 1.0000 0.0000
vt 0.0000 0.0000 0.0000
vt 1.0000 0.0000 0.0000
# 4 texture coords

g Plane459
usemtl _trees_tree_contryroadsdeftree
s 1
f 145/157/43 146/158/43 147/159/43 148/160/43 
# 1 polygons

#
# object Plane460
#

v  -6.4360 42.8012 -54.0129
v  38.4191 42.8012 -53.6402
v  38.4191 -34.5099 -53.6402
v  -6.4360 -34.5099 -54.0129
# 4 vertices

vn 0.0643 0.0000 -0.9979
# 1 vertex normals

vt 1.0000 1.0000 0.0000
vt 0.0000 1.0000 0.0000
vt 0.0000 0.0000 0.0000
vt 1.0000 0.0000 0.0000
# 4 texture coords

g Plane460
usemtl _trees_tree_contryroadsdeftree
s 1
f 149/161/44 150/162/44 151/163/44 152/164/44 
# 1 polygons

#
# object Plane461
#

v  -48.6377 42.8012 -53.8016
v  -3.7825 42.8012 -53.4290
v  -3.7825 -34.5099 -53.4290
v  -48.6377 -34.5099 -53.8016
# 4 vertices

vn 0.0643 0.0000 -0.9979
# 1 vertex normals

vt 1.0000 1.0000 0.0000
vt 0.0000 1.0000 0.0000
vt 0.0000 0.0000 0.0000
vt 1.0000 0.0000 0.0000
# 4 texture coords

g Plane461
usemtl _trees_tree_contryroadsdeftree
s 1
f 153/165/45 154/166/45 155/167/45 156/168/45 
# 1 polygons

#
# object Plane462
#

v  29.9083 42.8012 -63.8833
v  66.6868 42.8012 -38.2033
v  66.6868 -34.5099 -38.2033
v  29.9083 -34.5099 -63.8833
# 4 vertices

vn 0.6175 0.0000 -0.7866
# 1 vertex normals

vt 1.0000 1.0000 0.0000
vt 0.0000 1.0000 0.0000
vt 0.0000 0.0000 0.0000
vt 1.0000 0.0000 0.0000
# 4 texture coords

g Plane462
usemtl _trees_tree_contryroadsdeftree
s 1
f 157/169/46 158/170/46 159/171/46 160/172/46 
# 1 polygons

