{
    "asset": {
        "version": "2.0",
        "generator": "Open Asset Import Library (assimp v5.0.5eb040c7)"
    },
    "accessors": [
        {
            "bufferView": 0,
            "byteOffset": 0,
            "componentType": 5126,
            "count": 25,
            "type": "VEC3",
            "max": [
                10.092100143432618,
                10.092100143432618,
                4.856805324554443
            ],
            "min": [
                -10.092100143432618,
                -10.092100143432618,
                0.0
            ]
        },
        {
            "bufferView": 1,
            "byteOffset": 0,
            "componentType": 5126,
            "count": 25,
            "type": "VEC3",
            "max": [
                0.2136749029159546,
                0.0,
                1.0
            ],
            "min": [
                0.0,
                -0.23094405233860017,
                0.9729671478271484
            ]
        },
        {
            "bufferView": 2,
            "byteOffset": 0,
            "componentType": 5125,
            "count": 72,
            "type": "SCALAR",
            "max": [
                24
            ],
            "min": [
                0
            ]
        }
    ],
    "buffers": [
        {
            "byteLength": 888,
            "uri": "result.bin"
        }
    ],
    "bufferViews": [
        {
            "buffer": 0,
            "byteOffset": 0,
            "byteLength": 300,
            "target": 34962
        },
        {
            "buffer": 0,
            "byteOffset": 300,
            "byteLength": 300,
            "target": 34962
        },
        {
            "buffer": 0,
            "byteOffset": 600,
            "byteLength": 288,
            "target": 34963
        }
    ],
    "materials": [
        {
            "name": "01 - Default",
            "pbrMetallicRoughness": {
                "baseColorFactor": [
                    0.5882353186607361,
                    0.5882353186607361,
                    0.5882353186607361,
                    1.0
                ],
                "metallicFactor": 0.0,
                "roughnessFactor": 0.959750771522522
            }
        }
    ],
    "meshes": [
        {
            "name": "Plane001",
            "primitives": [
                {
                    "mode": 4,
                    "material": 0,
                    "indices": 2,
                    "attributes": {
                        "POSITION": 0,
                        "NORMAL": 1
                    }
                }
            ]
        }
    ],
    "nodes": [
        {
            "name": "RootNode",
            "children": [
                1
            ]
        },
        {
            "name": "Plane001_$AssimpFbx$_Translation",
            "matrix": [
                1.0,
                0.0,
                0.0,
                0.0,
                0.0,
                1.0,
                0.0,
                0.0,
                0.0,
                0.0,
                1.0,
                0.0,
                0.04767465591430664,
                0.0,
                -0.09102487564086914,
                1.0
            ],
            "children": [
                2
            ]
        },
        {
            "name": "Plane001_$AssimpFbx$_PreRotation",
            "matrix": [
                1.0,
                0.0,
                0.0,
                0.0,
                0.0,
                -4.371138828673793e-8,
                -1.0,
                0.0,
                0.0,
                1.0,
                -4.371138828673793e-8,
                0.0,
                0.0,
                0.0,
                0.0,
                1.0
            ],
            "children": [
                3
            ]
        },
        {
            "name": "Plane001",
            "mesh": 0
        }
    ],
    "scenes": [
        {
            "nodes": [
                0
            ]
        }
    ],
    "scene": 0
}