# 3ds Max Wavefront OBJ Exporter v0.97b - (c)2007 guruware
# File Created: 13.05.2019 23:49:43

mtllib mmt.mtl

#
# object Box001
#

v  8.0550 0.0000 -5.1842
v  8.0550 0.0000 5.2076
v  -8.0141 0.0000 5.2076
v  -8.0141 0.0000 -5.1842
v  8.0550 4.1501 -5.1842
v  -8.0141 4.1501 -5.1842
v  -8.0141 4.1501 5.2076
v  8.0550 4.1501 5.2076
v  -7.7147 0.0735 5.0140
v  7.7556 0.0735 5.0140
v  7.7556 0.0735 -4.9906
v  -7.7147 0.0735 -4.9906
v  -7.7147 4.0689 5.0140
v  -7.7147 4.0689 -4.9906
v  7.7556 4.0689 -4.9906
v  7.7556 4.0689 5.0140
# 16 vertices

vn 0.0000 -1.0000 -0.0000
vn 0.0000 1.0000 -0.0000
vn 0.0000 0.0000 1.0000
vn 1.0000 0.0000 -0.0000
vn 0.0000 0.0000 -1.0000
vn -1.0000 0.0000 -0.0000
# 6 vertex normals

vt 0.0000 1.0000 0.0000
vt 0.0000 0.0000 0.0000
vt 1.0000 0.0000 0.0000
vt 1.0000 1.0000 0.0000
# 4 texture coords

g Box001
usemtl 03___Default
s 2
f 1/1/1 2/2/1 3/3/1 4/4/1 
s 4
f 5/4/2 6/1/2 7/2/2 8/3/2 
s 8
f 8/4/3 7/1/3 3/2/3 2/3/3 
s 16
f 5/4/4 8/1/4 2/2/4 1/3/4 
s 32
f 6/4/5 5/1/5 1/2/5 4/3/5 
s 64
f 7/4/6 6/1/6 4/2/6 3/3/6 
s 2
f 9/3/2 10/2/2 11/1/2 12/4/2 
s 4
f 13/2/1 14/1/1 15/4/1 16/3/1 
s 8
f 9/2/5 13/1/5 16/4/5 10/3/5 
s 16
f 10/2/6 16/1/6 15/4/6 11/3/6 
s 32
f 11/2/3 15/1/3 14/4/3 12/3/3 
s 64
f 12/2/4 14/1/4 13/4/4 9/3/4 
# 12 polygons

#
# object Box002
#

v  -7.0272 3.6579 -5.1612
v  -7.0272 4.1227 -5.1612
v  -6.4628 4.1227 -5.1612
v  -6.4628 3.6579 -5.1612
v  -7.0272 3.6579 5.1446
v  -6.4628 3.6579 5.1446
v  -6.4628 4.1227 5.1446
v  -7.0272 4.1227 5.1446
# 8 vertices

vn 0.0000 0.0000 -1.0000
vn 0.0000 -0.0000 1.0000
vn 0.0000 -1.0000 -0.0000
vn 1.0000 0.0000 -0.0000
vn 0.0000 1.0000 0.0000
vn -1.0000 0.0000 -0.0000
# 6 vertex normals

vt 1.0000 0.0000 0.0000
vt 1.0000 1.0000 0.0000
vt 0.0000 1.0000 0.0000
vt 0.0000 0.0000 0.0000
# 4 texture coords

g Box002
usemtl 01___Default
s 2
f 17/5/7 18/6/7 19/7/7 20/8/7 
s 4
f 21/8/8 22/5/8 23/6/8 24/7/8 
s 8
f 17/8/9 20/5/9 22/6/9 21/7/9 
s 16
f 20/8/10 19/5/10 23/6/10 22/7/10 
s 32
f 19/8/11 18/5/11 24/6/11 23/7/11 
s 64
f 18/8/12 17/5/12 21/6/12 24/7/12 
# 6 polygons

#
# object Box003
#

v  -3.8028 3.6579 -5.1612
v  -3.8028 4.1227 -5.1612
v  -3.2384 4.1227 -5.1612
v  -3.2384 3.6579 -5.1612
v  -3.8028 3.6579 5.1446
v  -3.2384 3.6579 5.1446
v  -3.2384 4.1227 5.1446
v  -3.8028 4.1227 5.1446
# 8 vertices

vn 0.0000 0.0000 -1.0000
vn 0.0000 -0.0000 1.0000
vn 0.0000 -1.0000 -0.0000
vn 1.0000 0.0000 -0.0000
vn 0.0000 1.0000 0.0000
vn -1.0000 0.0000 -0.0000
# 6 vertex normals

vt 1.0000 0.0000 0.0000
vt 1.0000 1.0000 0.0000
vt 0.0000 1.0000 0.0000
vt 0.0000 0.0000 0.0000
# 4 texture coords

g Box003
usemtl 01___Default
s 2
f 25/9/13 26/10/13 27/11/13 28/12/13 
s 4
f 29/12/14 30/9/14 31/10/14 32/11/14 
s 8
f 25/12/15 28/9/15 30/10/15 29/11/15 
s 16
f 28/12/16 27/9/16 31/10/16 30/11/16 
s 32
f 27/12/17 26/9/17 32/10/17 31/11/17 
s 64
f 26/12/18 25/9/18 29/10/18 32/11/18 
# 6 polygons

#
# object Box004
#

v  -0.2873 3.6579 -5.1612
v  -0.2873 4.1227 -5.1612
v  0.2771 4.1227 -5.1612
v  0.2771 3.6579 -5.1612
v  -0.2873 3.6579 5.1446
v  0.2771 3.6579 5.1446
v  0.2771 4.1227 5.1446
v  -0.2873 4.1227 5.1446
# 8 vertices

vn 0.0000 0.0000 -1.0000
vn 0.0000 -0.0000 1.0000
vn 0.0000 -1.0000 -0.0000
vn 1.0000 0.0000 -0.0000
vn 0.0000 1.0000 0.0000
vn -1.0000 0.0000 -0.0000
# 6 vertex normals

vt 1.0000 0.0000 0.0000
vt 1.0000 1.0000 0.0000
vt 0.0000 1.0000 0.0000
vt 0.0000 0.0000 0.0000
# 4 texture coords

g Box004
usemtl 01___Default
s 2
f 33/13/19 34/14/19 35/15/19 36/16/19 
s 4
f 37/16/20 38/13/20 39/14/20 40/15/20 
s 8
f 33/16/21 36/13/21 38/14/21 37/15/21 
s 16
f 36/16/22 35/13/22 39/14/22 38/15/22 
s 32
f 35/16/23 34/13/23 40/14/23 39/15/23 
s 64
f 34/16/24 33/13/24 37/14/24 40/15/24 
# 6 polygons

#
# object Box005
#

v  3.0910 3.6579 -5.1612
v  3.0910 4.1227 -5.1612
v  3.6554 4.1227 -5.1612
v  3.6554 3.6579 -5.1612
v  3.0910 3.6579 5.1446
v  3.6554 3.6579 5.1446
v  3.6554 4.1227 5.1446
v  3.0910 4.1227 5.1446
# 8 vertices

vn 0.0000 0.0000 -1.0000
vn 0.0000 -0.0000 1.0000
vn 0.0000 -1.0000 -0.0000
vn 1.0000 0.0000 -0.0000
vn 0.0000 1.0000 0.0000
vn -1.0000 0.0000 -0.0000
# 6 vertex normals

vt 1.0000 0.0000 0.0000
vt 1.0000 1.0000 0.0000
vt 0.0000 1.0000 0.0000
vt 0.0000 0.0000 0.0000
# 4 texture coords

g Box005
usemtl 01___Default
s 2
f 41/17/25 42/18/25 43/19/25 44/20/25 
s 4
f 45/20/26 46/17/26 47/18/26 48/19/26 
s 8
f 41/20/27 44/17/27 46/18/27 45/19/27 
s 16
f 44/20/28 43/17/28 47/18/28 46/19/28 
s 32
f 43/20/29 42/17/29 48/18/29 47/19/29 
s 64
f 42/20/30 41/17/30 45/18/30 48/19/30 
# 6 polygons

#
# object Box006
#

v  6.3801 3.6579 -5.1612
v  6.3801 4.1227 -5.1612
v  6.9445 4.1227 -5.1612
v  6.9445 3.6579 -5.1612
v  6.3801 3.6579 5.1446
v  6.9445 3.6579 5.1446
v  6.9445 4.1227 5.1446
v  6.3801 4.1227 5.1446
# 8 vertices

vn 0.0000 0.0000 -1.0000
vn 0.0000 -0.0000 1.0000
vn 0.0000 -1.0000 -0.0000
vn 1.0000 0.0000 -0.0000
vn 0.0000 1.0000 0.0000
vn -1.0000 0.0000 -0.0000
# 6 vertex normals

vt 1.0000 0.0000 0.0000
vt 1.0000 1.0000 0.0000
vt 0.0000 1.0000 0.0000
vt 0.0000 0.0000 0.0000
# 4 texture coords

g Box006
usemtl 01___Default
s 2
f 49/21/31 50/22/31 51/23/31 52/24/31 
s 4
f 53/24/32 54/21/32 55/22/32 56/23/32 
s 8
f 49/24/33 52/21/33 54/22/33 53/23/33 
s 16
f 52/24/34 51/21/34 55/22/34 54/23/34 
s 32
f 51/24/35 50/21/35 56/22/35 55/23/35 
s 64
f 50/24/36 49/21/36 53/22/36 56/23/36 
# 6 polygons

#
# object Box007
#

v  -8.4380 0.0000 5.9030
v  -8.4380 0.0000 -5.9389
v  8.3451 0.0000 -5.9389
v  8.3451 0.0000 5.9030
v  -8.4380 0.1278 5.9030
v  8.3451 0.1278 5.9030
v  8.3451 0.1278 -5.9389
v  -8.4380 0.1278 -5.9389
# 8 vertices

vn 0.0000 -1.0000 -0.0000
vn 0.0000 1.0000 -0.0000
vn 0.0000 0.0000 1.0000
vn 1.0000 0.0000 -0.0000
vn 0.0000 0.0000 -1.0000
vn -1.0000 0.0000 -0.0000
# 6 vertex normals

vt -2.2972 -1.4737 0.0000
vt -2.2972 2.4737 0.0000
vt 3.2972 2.4737 0.0000
vt 3.2972 -1.4737 0.0000
vt -2.2972 -1.4737 1.0000
vt 3.2972 -1.4737 1.0000
vt 3.2972 2.4737 1.0000
vt -2.2972 2.4737 1.0000
# 8 texture coords

g Box007
usemtl 02___Default
s 2
f 57/25/37 58/26/37 59/27/37 60/28/37 
s 4
f 61/29/38 62/30/38 63/31/38 64/32/38 
s 8
f 57/25/39 60/28/39 62/30/39 61/29/39 
s 16
f 60/28/40 59/27/40 63/31/40 62/30/40 
s 32
f 59/27/41 58/26/41 64/32/41 63/31/41 
s 64
f 58/26/42 57/25/42 61/29/42 64/32/42 
# 6 polygons

