# 3ds Max Wavefront OBJ Exporter v0.97b - (c)2007 guruware
# File Created: 21.07.2019 01:58:03

mtllib lab.mtl

#
# object Box001
#

v  -10.1539 0.0000 10.5064
v  -10.1539 0.0000 -9.4936
v  9.8461 0.0000 -9.4936
v  9.8461 0.0000 10.5064
v  -10.1539 0.1000 10.5064
v  9.8461 0.1000 10.5064
v  9.8461 0.1000 -9.4936
v  -10.1539 0.1000 -9.4936
# 8 vertices

vn 0.0000 -1.0000 -0.0000
vn 0.0000 1.0000 -0.0000
vn 0.0000 0.0000 1.0000
vn 1.0000 0.0000 -0.0000
vn 0.0000 0.0000 -1.0000
vn -1.0000 0.0000 -0.0000
# 6 vertex normals

vt 1.0000 0.0000 0.0000
vt 1.0000 1.0000 0.0000
vt 0.0000 1.0000 0.0000
vt 0.0000 0.0000 0.0000
# 4 texture coords

g Box001
usemtl 01___Default
s 2
f 1/1/1 2/2/1 3/3/1 4/4/1 
s 4
f 5/4/2 6/1/2 7/2/2 8/3/2 
s 8
f 1/4/3 4/1/3 6/2/3 5/3/3 
s 16
f 4/4/4 3/1/4 7/2/4 6/3/4 
s 32
f 3/4/5 2/1/5 8/2/5 7/3/5 
s 64
f 2/4/6 1/1/6 5/2/6 8/3/6 
# 6 polygons

#
# object Box008
#

v  -9.6043 0.0000 5.8336
v  -9.6043 0.0000 5.0480
v  -8.8515 0.0000 5.0480
v  -8.8515 0.0000 5.8336
v  -9.6043 7.9046 5.8336
v  -8.8515 7.9046 5.8336
v  -8.8515 7.9046 5.0480
v  -9.6043 7.9046 5.0480
v  -9.6043 0.0000 1.1304
v  -9.6043 0.0000 0.3448
v  -8.8515 0.0000 0.3448
v  -8.8515 0.0000 1.1304
v  -9.6043 7.9046 1.1304
v  -8.8515 7.9046 1.1304
v  -8.8515 7.9046 0.3448
v  -9.6043 7.9046 0.3448
v  -9.6043 0.0000 -3.8956
v  -9.6043 0.0000 -4.6811
v  -8.8515 0.0000 -4.6811
v  -8.8515 0.0000 -3.8956
v  -9.6043 7.9046 -3.8956
v  -8.8515 7.9046 -3.8956
v  -8.8515 7.9046 -4.6811
v  -9.6043 7.9046 -4.6811
v  -9.6043 0.0000 -8.6732
v  -9.6043 0.0000 -9.4587
v  -8.8515 0.0000 -9.4587
v  -8.8515 0.0000 -8.6732
v  -9.6043 7.9046 -8.6732
v  -8.8515 7.9046 -8.6732
v  -8.8515 7.9046 -9.4587
v  -9.6043 7.9046 -9.4587
v  -9.4492 6.6472 10.5427
v  -9.4492 6.6472 -9.5326
v  -8.6964 6.6472 -9.5326
v  -8.6964 6.6472 10.5427
v  -9.4492 7.9046 10.5427
v  -7.4551 7.9046 10.5427
v  -7.4551 7.9046 -9.5326
v  -9.4492 7.9046 -9.5326
v  -9.6043 0.0000 10.4837
v  -9.6043 0.0000 9.6981
v  -8.8515 0.0000 9.6981
v  -8.8515 0.0000 10.4837
v  -9.6043 7.9046 10.4837
v  -8.8515 7.9046 10.4837
v  -8.8515 7.9046 9.6981
v  -9.6043 7.9046 9.6981
v  -10.1229 0.0000 10.5427
v  -10.1229 0.0000 -9.5326
v  -9.3701 0.0000 -9.5326
v  -9.3701 0.0000 10.5427
v  -10.1229 7.9046 10.5427
v  -9.3701 7.9046 10.5427
v  -9.3701 7.9046 -9.5326
v  -10.1229 7.9046 -9.5326
# 56 vertices

vn 0.0000 -1.0000 -0.0000
vn 0.0000 1.0000 -0.0000
vn 0.0000 0.0000 1.0000
vn 1.0000 0.0000 -0.0000
vn 0.0000 0.0000 -1.0000
vn -1.0000 0.0000 -0.0000
vn 0.7117 -0.7025 -0.0000
# 7 vertex normals

vt 1.0000 0.0000 0.0000
vt 1.0000 1.0000 0.0000
vt 0.0000 1.0000 0.0000
vt 0.0000 0.0000 0.0000
# 4 texture coords

g Box008
usemtl 02___Default
s 2
f 9/5/7 10/6/7 11/7/7 12/8/7 
s 4
f 13/8/8 14/5/8 15/6/8 16/7/8 
s 8
f 9/8/9 12/5/9 14/6/9 13/7/9 
s 16
f 12/8/10 11/5/10 15/6/10 14/7/10 
s 32
f 11/8/11 10/5/11 16/6/11 15/7/11 
s 64
f 10/8/12 9/5/12 13/6/12 16/7/12 
s 2
f 17/5/7 18/6/7 19/7/7 20/8/7 
s 4
f 21/8/8 22/5/8 23/6/8 24/7/8 
s 8
f 17/8/9 20/5/9 22/6/9 21/7/9 
s 16
f 20/8/10 19/5/10 23/6/10 22/7/10 
s 32
f 19/8/11 18/5/11 24/6/11 23/7/11 
s 64
f 18/8/12 17/5/12 21/6/12 24/7/12 
s 2
f 25/5/7 26/6/7 27/7/7 28/8/7 
s 4
f 29/8/8 30/5/8 31/6/8 32/7/8 
s 8
f 25/8/9 28/5/9 30/6/9 29/7/9 
s 16
f 28/8/10 27/5/10 31/6/10 30/7/10 
s 32
f 27/8/11 26/5/11 32/6/11 31/7/11 
s 64
f 26/8/12 25/5/12 29/6/12 32/7/12 
s 2
f 33/5/7 34/6/7 35/7/7 36/8/7 
s 4
f 37/8/8 38/5/8 39/6/8 40/7/8 
s 8
f 33/8/9 36/5/9 38/6/9 37/7/9 
s 16
f 36/8/10 35/5/10 39/6/10 38/7/10 
s 32
f 35/8/11 34/5/11 40/6/11 39/7/11 
s 64
f 34/8/12 33/5/12 37/6/12 40/7/12 
s 2
f 41/5/7 42/6/7 43/7/7 44/8/7 
usemtl 01___Default
s 4
f 45/8/8 46/5/8 47/6/8 48/7/8 
s 8
f 41/8/9 44/5/9 46/6/9 45/7/9 
s 16
f 44/8/13 43/5/13 47/6/13 46/7/13 
s 32
f 43/8/11 42/5/11 48/6/11 47/7/11 
s 64
f 42/8/12 41/5/12 45/6/12 48/7/12 
usemtl 02___Default
s 2
f 49/5/7 50/6/7 51/7/7 52/8/7 
s 4
f 53/8/8 54/5/8 55/6/8 56/7/8 
s 8
f 49/8/9 52/5/9 54/6/9 53/7/9 
s 16
f 52/8/10 51/5/10 55/6/10 54/7/10 
s 32
f 51/8/11 50/5/11 56/6/11 55/7/11 
s 64
f 50/8/12 49/5/12 53/6/12 56/7/12 
usemtl 01___Default
s 2
f 57/5/7 58/6/7 59/7/7 60/8/7 
s 4
f 61/8/8 62/5/8 63/6/8 64/7/8 
s 8
f 57/8/9 60/5/9 62/6/9 61/7/9 
s 16
f 60/8/10 59/5/10 63/6/10 62/7/10 
s 32
f 59/8/11 58/5/11 64/6/11 63/7/11 
s 64
f 58/8/12 57/5/12 61/6/12 64/7/12 
# 42 polygons

#
# object Box009
#

v  5.4690 0.0000 9.1436
v  4.6834 0.0000 9.1436
v  4.6834 0.0000 8.3907
v  5.4690 0.0000 8.3907
v  5.4690 7.9046 9.1436
v  5.4690 7.9046 8.3907
v  4.6834 7.9046 8.3907
v  4.6834 7.9046 9.1436
v  0.7658 0.0000 9.1436
v  -0.0198 0.0000 9.1436
v  -0.0198 0.0000 8.3907
v  0.7658 0.0000 8.3907
v  0.7658 7.9046 9.1436
v  0.7658 7.9046 8.3907
v  -0.0198 7.9046 8.3907
v  -0.0198 7.9046 9.1436
v  -4.2602 0.0000 9.1436
v  -5.0457 0.0000 9.1436
v  -5.0457 0.0000 8.3907
v  -4.2602 0.0000 8.3907
v  -4.2602 7.9046 9.1436
v  -4.2602 7.9046 8.3907
v  -5.0457 7.9046 8.3907
v  -5.0457 7.9046 9.1436
v  -9.0378 0.0000 9.1436
v  -9.8233 0.0000 9.1436
v  -9.8233 0.0000 8.3907
v  -9.0378 0.0000 8.3907
v  -9.0378 7.9046 9.1436
v  -9.0378 7.9046 8.3907
v  -9.8233 7.9046 8.3907
v  -9.8233 7.9046 9.1436
v  10.1781 6.6472 8.9885
v  -9.8972 6.6472 8.9885
v  -9.8972 6.6472 8.2356
v  10.1781 6.6472 8.2356
v  10.1781 7.9046 8.9885
v  10.1781 7.9046 6.9944
v  -9.8972 7.9046 6.9944
v  -9.8972 7.9046 8.9885
v  10.1191 0.0000 9.1436
v  9.3335 0.0000 9.1436
v  9.3335 0.0000 8.3907
v  10.1191 0.0000 8.3907
v  10.1191 7.9046 9.1436
v  10.1191 7.9046 8.3907
v  9.3335 7.9046 8.3907
v  9.3335 7.9046 9.1436
v  10.1781 0.0000 9.6621
v  -9.8972 0.0000 9.6621
v  -9.8972 0.0000 8.9093
v  10.1781 0.0000 8.9093
v  10.1781 7.9046 9.6621
v  10.1781 7.9046 8.9093
v  -9.8972 7.9046 8.9093
v  -9.8972 7.9046 9.6621
# 56 vertices

vn 0.0000 -1.0000 -0.0000
vn 0.0000 1.0000 -0.0000
vn 1.0000 0.0000 -0.0000
vn -0.0000 0.0000 -1.0000
vn -1.0000 0.0000 0.0000
vn 0.0000 0.0000 1.0000
vn -0.0000 -0.7025 -0.7117
# 7 vertex normals

vt 1.0000 0.0000 0.0000
vt 1.0000 1.0000 0.0000
vt 0.0000 1.0000 0.0000
vt 0.0000 0.0000 0.0000
# 4 texture coords

g Box009
usemtl 02___Default
s 2
f 65/9/14 66/10/14 67/11/14 68/12/14 
s 4
f 69/12/15 70/9/15 71/10/15 72/11/15 
s 8
f 65/12/16 68/9/16 70/10/16 69/11/16 
s 16
f 68/12/17 67/9/17 71/10/17 70/11/17 
s 32
f 67/12/18 66/9/18 72/10/18 71/11/18 
s 64
f 66/12/19 65/9/19 69/10/19 72/11/19 
s 2
f 73/9/14 74/10/14 75/11/14 76/12/14 
s 4
f 77/12/15 78/9/15 79/10/15 80/11/15 
s 8
f 73/12/16 76/9/16 78/10/16 77/11/16 
s 16
f 76/12/17 75/9/17 79/10/17 78/11/17 
s 32
f 75/12/18 74/9/18 80/10/18 79/11/18 
s 64
f 74/12/19 73/9/19 77/10/19 80/11/19 
s 2
f 81/9/14 82/10/14 83/11/14 84/12/14 
s 4
f 85/12/15 86/9/15 87/10/15 88/11/15 
s 8
f 81/12/16 84/9/16 86/10/16 85/11/16 
s 16
f 84/12/17 83/9/17 87/10/17 86/11/17 
s 32
f 83/12/18 82/9/18 88/10/18 87/11/18 
s 64
f 82/12/19 81/9/19 85/10/19 88/11/19 
s 2
f 89/9/14 90/10/14 91/11/14 92/12/14 
s 4
f 93/12/15 94/9/15 95/10/15 96/11/15 
s 8
f 89/12/16 92/9/16 94/10/16 93/11/16 
s 16
f 92/12/17 91/9/17 95/10/17 94/11/17 
s 32
f 91/12/18 90/9/18 96/10/18 95/11/18 
s 64
f 90/12/19 89/9/19 93/10/19 96/11/19 
s 2
f 97/9/14 98/10/14 99/11/14 100/12/14 
usemtl 01___Default
s 4
f 101/12/15 102/9/15 103/10/15 104/11/15 
s 8
f 97/12/16 100/9/16 102/10/16 101/11/16 
s 16
f 100/12/20 99/9/20 103/10/20 102/11/20 
s 32
f 99/12/18 98/9/18 104/10/18 103/11/18 
s 64
f 98/12/19 97/9/19 101/10/19 104/11/19 
usemtl 02___Default
s 2
f 105/9/14 106/10/14 107/11/14 108/12/14 
s 4
f 109/12/15 110/9/15 111/10/15 112/11/15 
s 8
f 105/12/16 108/9/16 110/10/16 109/11/16 
s 16
f 108/12/17 107/9/17 111/10/17 110/11/17 
s 32
f 107/12/18 106/9/18 112/10/18 111/11/18 
s 64
f 106/12/19 105/9/19 109/10/19 112/11/19 
usemtl 01___Default
s 2
f 113/9/14 114/10/14 115/11/14 116/12/14 
s 4
f 117/12/15 118/9/15 119/10/15 120/11/15 
s 8
f 113/12/16 116/9/16 118/10/16 117/11/16 
s 16
f 116/12/17 115/9/17 119/10/17 118/11/17 
s 32
f 115/12/18 114/9/18 120/10/18 119/11/18 
s 64
f 114/12/19 113/9/19 117/10/19 120/11/19 
# 42 polygons

#
# object Box010
#

v  10.1424 0.0000 -5.3547
v  10.1424 0.0000 -4.5692
v  9.3896 0.0000 -4.5692
v  9.3896 0.0000 -5.3547
v  10.1424 7.9046 -5.3547
v  9.3896 7.9046 -5.3547
v  9.3896 7.9046 -4.5692
v  10.1424 7.9046 -4.5692
v  10.1424 0.0000 -0.6515
v  10.1424 0.0000 0.1340
v  9.3896 0.0000 0.1340
v  9.3896 0.0000 -0.6515
v  10.1424 7.9046 -0.6515
v  9.3896 7.9046 -0.6515
v  9.3896 7.9046 0.1340
v  10.1424 7.9046 0.1340
v  10.1424 0.0000 4.3744
v  10.1424 0.0000 5.1600
v  9.3896 0.0000 5.1600
v  9.3896 0.0000 4.3744
v  10.1424 7.9046 4.3744
v  9.3896 7.9046 4.3744
v  9.3896 7.9046 5.1600
v  10.1424 7.9046 5.1600
v  10.1424 0.0000 9.1521
v  10.1424 0.0000 9.9376
v  9.3896 0.0000 9.9376
v  9.3896 0.0000 9.1521
v  10.1424 7.9046 9.1521
v  9.3896 7.9046 9.1521
v  9.3896 7.9046 9.9376
v  10.1424 7.9046 9.9376
v  9.9873 6.6472 -10.0638
v  9.9873 6.6472 10.0115
v  9.2345 6.6472 10.0115
v  9.2345 6.6472 -10.0638
v  9.9873 7.9046 -10.0638
v  7.9933 7.9046 -10.0638
v  7.9933 7.9046 10.0115
v  9.9873 7.9046 10.0115
v  10.1424 0.0000 -10.0048
v  10.1424 0.0000 -9.2193
v  9.3896 0.0000 -9.2193
v  9.3896 0.0000 -10.0048
v  10.1424 7.9046 -10.0048
v  9.3896 7.9046 -10.0048
v  9.3896 7.9046 -9.2193
v  10.1424 7.9046 -9.2193
v  10.6610 0.0000 -10.0638
v  10.6610 0.0000 10.0115
v  9.9082 0.0000 10.0115
v  9.9082 0.0000 -10.0638
v  10.6610 7.9046 -10.0638
v  9.9082 7.9046 -10.0638
v  9.9082 7.9046 10.0115
v  10.6610 7.9046 10.0115
# 56 vertices

vn 0.0000 -1.0000 -0.0000
vn 0.0000 1.0000 -0.0000
vn -0.0000 0.0000 -1.0000
vn -1.0000 0.0000 0.0000
vn 0.0000 0.0000 1.0000
vn 1.0000 0.0000 -0.0000
vn -0.7117 -0.7025 0.0000
# 7 vertex normals

vt 1.0000 0.0000 0.0000
vt 1.0000 1.0000 0.0000
vt 0.0000 1.0000 0.0000
vt 0.0000 0.0000 0.0000
# 4 texture coords

g Box010
usemtl 02___Default
s 2
f 121/13/21 122/14/21 123/15/21 124/16/21 
s 4
f 125/16/22 126/13/22 127/14/22 128/15/22 
s 8
f 121/16/23 124/13/23 126/14/23 125/15/23 
s 16
f 124/16/24 123/13/24 127/14/24 126/15/24 
s 32
f 123/16/25 122/13/25 128/14/25 127/15/25 
s 64
f 122/16/26 121/13/26 125/14/26 128/15/26 
s 2
f 129/13/21 130/14/21 131/15/21 132/16/21 
s 4
f 133/16/22 134/13/22 135/14/22 136/15/22 
s 8
f 129/16/23 132/13/23 134/14/23 133/15/23 
s 16
f 132/16/24 131/13/24 135/14/24 134/15/24 
s 32
f 131/16/25 130/13/25 136/14/25 135/15/25 
s 64
f 130/16/26 129/13/26 133/14/26 136/15/26 
s 2
f 137/13/21 138/14/21 139/15/21 140/16/21 
s 4
f 141/16/22 142/13/22 143/14/22 144/15/22 
s 8
f 137/16/23 140/13/23 142/14/23 141/15/23 
s 16
f 140/16/24 139/13/24 143/14/24 142/15/24 
s 32
f 139/16/25 138/13/25 144/14/25 143/15/25 
s 64
f 138/16/26 137/13/26 141/14/26 144/15/26 
s 2
f 145/13/21 146/14/21 147/15/21 148/16/21 
s 4
f 149/16/22 150/13/22 151/14/22 152/15/22 
s 8
f 145/16/23 148/13/23 150/14/23 149/15/23 
s 16
f 148/16/24 147/13/24 151/14/24 150/15/24 
s 32
f 147/16/25 146/13/25 152/14/25 151/15/25 
s 64
f 146/16/26 145/13/26 149/14/26 152/15/26 
s 2
f 153/13/21 154/14/21 155/15/21 156/16/21 
usemtl 01___Default
s 4
f 157/16/22 158/13/22 159/14/22 160/15/22 
s 8
f 153/16/23 156/13/23 158/14/23 157/15/23 
s 16
f 156/16/27 155/13/27 159/14/27 158/15/27 
s 32
f 155/16/25 154/13/25 160/14/25 159/15/25 
s 64
f 154/16/26 153/13/26 157/14/26 160/15/26 
usemtl 02___Default
s 2
f 161/13/21 162/14/21 163/15/21 164/16/21 
s 4
f 165/16/22 166/13/22 167/14/22 168/15/22 
s 8
f 161/16/23 164/13/23 166/14/23 165/15/23 
s 16
f 164/16/24 163/13/24 167/14/24 166/15/24 
s 32
f 163/16/25 162/13/25 168/14/25 167/15/25 
s 64
f 162/16/26 161/13/26 165/14/26 168/15/26 
usemtl 01___Default
s 2
f 169/13/21 170/14/21 171/15/21 172/16/21 
s 4
f 173/16/22 174/13/22 175/14/22 176/15/22 
s 8
f 169/16/23 172/13/23 174/14/23 173/15/23 
s 16
f 172/16/24 171/13/24 175/14/24 174/15/24 
s 32
f 171/16/25 170/13/25 176/14/25 175/15/25 
s 64
f 170/16/26 169/13/26 173/14/26 176/15/26 
# 42 polygons

#
# object Box011
#

v  -4.9364 0.0000 -9.3927
v  -4.1508 0.0000 -9.3927
v  -4.1508 0.0000 -8.6399
v  -4.9364 0.0000 -8.6399
v  -4.9364 7.9046 -9.3927
v  -4.9364 7.9046 -8.6399
v  -4.1508 7.9046 -8.6399
v  -4.1508 7.9046 -9.3927
v  -0.2332 0.0000 -9.3927
v  0.5524 0.0000 -9.3927
v  0.5524 0.0000 -8.6399
v  -0.2332 0.0000 -8.6399
v  -0.2332 7.9046 -9.3927
v  -0.2332 7.9046 -8.6399
v  0.5524 7.9046 -8.6399
v  0.5524 7.9046 -9.3927
v  4.7928 0.0000 -9.3927
v  5.5783 0.0000 -9.3927
v  5.5783 0.0000 -8.6399
v  4.7928 0.0000 -8.6399
v  4.7928 7.9046 -9.3927
v  4.7928 7.9046 -8.6399
v  5.5783 7.9046 -8.6399
v  5.5783 7.9046 -9.3927
v  9.5704 0.0000 -9.3927
v  10.3560 0.0000 -9.3927
v  10.3560 0.0000 -8.6399
v  9.5704 0.0000 -8.6399
v  9.5704 7.9046 -9.3927
v  9.5704 7.9046 -8.6399
v  10.3560 7.9046 -8.6399
v  10.3560 7.9046 -9.3927
v  -9.6455 6.6472 -9.2376
v  10.4298 6.6472 -9.2376
v  10.4298 6.6472 -8.4848
v  -9.6455 6.6472 -8.4848
v  -9.6455 7.9046 -9.2376
v  -9.6455 7.9046 -7.2435
v  10.4298 7.9046 -7.2435
v  10.4298 7.9046 -9.2376
v  -9.5865 0.0000 -9.3927
v  -8.8009 0.0000 -9.3927
v  -8.8009 0.0000 -8.6399
v  -9.5865 0.0000 -8.6399
v  -9.5865 7.9046 -9.3927
v  -9.5865 7.9046 -8.6399
v  -8.8009 7.9046 -8.6399
v  -8.8009 7.9046 -9.3927
v  -9.6455 0.0000 -9.9113
v  10.4298 0.0000 -9.9113
v  10.4298 0.0000 -9.1585
v  -9.6455 0.0000 -9.1585
v  -9.6455 7.9046 -9.9113
v  -9.6455 7.9046 -9.1585
v  10.4298 7.9046 -9.1585
v  10.4298 7.9046 -9.9113
# 56 vertices

vn 0.0000 -1.0000 -0.0000
vn 0.0000 1.0000 -0.0000
vn -1.0000 0.0000 0.0000
vn 0.0000 0.0000 1.0000
vn 1.0000 0.0000 -0.0000
vn -0.0000 0.0000 -1.0000
vn 0.0000 -0.7025 0.7117
# 7 vertex normals

vt 1.0000 0.0000 0.0000
vt 1.0000 1.0000 0.0000
vt 0.0000 1.0000 0.0000
vt 0.0000 0.0000 0.0000
# 4 texture coords

g Box011
usemtl 02___Default
s 2
f 177/17/28 178/18/28 179/19/28 180/20/28 
s 4
f 181/20/29 182/17/29 183/18/29 184/19/29 
s 8
f 177/20/30 180/17/30 182/18/30 181/19/30 
s 16
f 180/20/31 179/17/31 183/18/31 182/19/31 
s 32
f 179/20/32 178/17/32 184/18/32 183/19/32 
s 64
f 178/20/33 177/17/33 181/18/33 184/19/33 
s 2
f 185/17/28 186/18/28 187/19/28 188/20/28 
s 4
f 189/20/29 190/17/29 191/18/29 192/19/29 
s 8
f 185/20/30 188/17/30 190/18/30 189/19/30 
s 16
f 188/20/31 187/17/31 191/18/31 190/19/31 
s 32
f 187/20/32 186/17/32 192/18/32 191/19/32 
s 64
f 186/20/33 185/17/33 189/18/33 192/19/33 
s 2
f 193/17/28 194/18/28 195/19/28 196/20/28 
s 4
f 197/20/29 198/17/29 199/18/29 200/19/29 
s 8
f 193/20/30 196/17/30 198/18/30 197/19/30 
s 16
f 196/20/31 195/17/31 199/18/31 198/19/31 
s 32
f 195/20/32 194/17/32 200/18/32 199/19/32 
s 64
f 194/20/33 193/17/33 197/18/33 200/19/33 
s 2
f 201/17/28 202/18/28 203/19/28 204/20/28 
s 4
f 205/20/29 206/17/29 207/18/29 208/19/29 
s 8
f 201/20/30 204/17/30 206/18/30 205/19/30 
s 16
f 204/20/31 203/17/31 207/18/31 206/19/31 
s 32
f 203/20/32 202/17/32 208/18/32 207/19/32 
s 64
f 202/20/33 201/17/33 205/18/33 208/19/33 
s 2
f 209/17/28 210/18/28 211/19/28 212/20/28 
usemtl 01___Default
s 4
f 213/20/29 214/17/29 215/18/29 216/19/29 
s 8
f 209/20/30 212/17/30 214/18/30 213/19/30 
s 16
f 212/20/34 211/17/34 215/18/34 214/19/34 
s 32
f 211/20/32 210/17/32 216/18/32 215/19/32 
s 64
f 210/20/33 209/17/33 213/18/33 216/19/33 
usemtl 02___Default
s 2
f 217/17/28 218/18/28 219/19/28 220/20/28 
s 4
f 221/20/29 222/17/29 223/18/29 224/19/29 
s 8
f 217/20/30 220/17/30 222/18/30 221/19/30 
s 16
f 220/20/31 219/17/31 223/18/31 222/19/31 
s 32
f 219/20/32 218/17/32 224/18/32 223/19/32 
s 64
f 218/20/33 217/17/33 221/18/33 224/19/33 
usemtl 01___Default
s 2
f 225/17/28 226/18/28 227/19/28 228/20/28 
s 4
f 229/20/29 230/17/29 231/18/29 232/19/29 
s 8
f 225/20/30 228/17/30 230/18/30 229/19/30 
s 16
f 228/20/31 227/17/31 231/18/31 230/19/31 
s 32
f 227/20/32 226/17/32 232/18/32 231/19/32 
s 64
f 226/20/33 225/17/33 229/18/33 232/19/33 
# 42 polygons

#
# object Box012
#

v  -8.3037 7.7846 7.4687
v  -8.3037 7.7846 -7.7133
v  8.5721 7.7846 -7.7133
v  8.5721 7.7846 7.4687
v  -8.3037 8.1611 7.4687
v  8.5721 8.1611 7.4687
v  8.5721 8.1611 -7.7133
v  -8.3037 8.1611 -7.7133
# 8 vertices

vn 0.0000 -1.0000 -0.0000
vn 0.0000 1.0000 -0.0000
vn 0.0000 0.0000 1.0000
vn 1.0000 0.0000 -0.0000
vn 0.0000 0.0000 -1.0000
vn -1.0000 0.0000 -0.0000
# 6 vertex normals

vt 1.0000 0.0000 0.0000
vt 1.0000 1.0000 0.0000
vt 0.0000 1.0000 0.0000
vt 0.0000 0.0000 0.0000
# 4 texture coords

g Box012
usemtl 01___Default
s 2
f 233/21/35 234/22/35 235/23/35 236/24/35 
s 4
f 237/24/36 238/21/36 239/22/36 240/23/36 
s 8
f 233/24/37 236/21/37 238/22/37 237/23/37 
s 16
f 236/24/38 235/21/38 239/22/38 238/23/38 
s 32
f 235/24/39 234/21/39 240/22/39 239/23/39 
s 64
f 234/24/40 233/21/40 237/22/40 240/23/40 
# 6 polygons

#
# object Cylinder001
#

v  1.0138 0.0000 0.5928
v  0.7387 0.0000 0.8236
v  0.4013 0.0000 0.9465
v  1.2557 0.0000 -0.0718
v  0.0422 0.0000 0.9465
v  -0.2953 0.0000 0.8236
v  -0.7499 0.0000 0.2818
v  -0.5703 0.0000 0.5928
v  -0.8122 0.0000 -0.0718
v  -0.7499 0.0000 -0.4254
v  -0.2953 0.0000 -0.9672
v  -0.5703 0.0000 -0.7364
v  0.0422 0.0000 -1.0900
v  0.4013 0.0000 -1.0900
v  1.0138 0.0000 -0.7364
v  0.7387 0.0000 -0.9672
v  1.1933 0.0000 -0.4254
v  1.1933 0.0000 0.2818
v  4.0208 1.9238 -1.4545
v  4.2646 1.9238 -0.0718
v  3.3188 1.9238 -2.6705
v  2.2432 1.9238 -3.5730
v  0.9238 1.9238 -4.0533
v  -0.4803 1.9238 -4.0533
v  -1.7997 1.9238 -3.5730
v  -2.8753 1.9238 -2.6705
v  -3.5774 1.9238 -1.4545
v  -3.8212 1.9238 -0.0718
v  -3.5774 1.9238 1.3110
v  -2.8753 1.9238 2.5269
v  -1.7997 1.9238 3.4295
v  -0.4803 1.9238 3.9097
v  0.9238 1.9238 3.9097
v  2.2432 1.9238 3.4295
v  3.3188 1.9238 2.5269
v  4.0208 1.9238 1.3110
v  4.0208 2.2576 -1.4545
v  4.2646 2.2576 -0.0718
v  3.3188 2.2576 -2.6705
v  2.2432 2.2576 -3.5730
v  0.9238 2.2576 -4.0533
v  -0.4803 2.2576 -4.0533
v  -1.7997 2.2576 -3.5730
v  -2.8753 2.2576 -2.6705
v  -3.5774 2.2576 -1.4545
v  -3.8212 2.2576 -0.0718
v  -3.5774 2.2576 1.3110
v  -2.8753 2.2576 2.5269
v  -1.7997 2.2576 3.4295
v  -0.4803 2.2576 3.9097
v  0.9238 2.2576 3.9097
v  2.2432 2.2576 3.4295
v  3.3188 2.2576 2.5269
v  4.0208 2.2576 1.3110
# 54 vertices

vn 0.0000 -1.0000 -0.0000
vn 0.5387 -0.8425 0.0000
vn 0.5062 -0.8425 -0.1842
vn 0.8348 -0.4592 -0.3038
vn 0.8883 -0.4592 0.0000
vn 0.4126 -0.8425 -0.3462
vn 0.6805 -0.4592 -0.5710
vn 0.2693 -0.8425 -0.4665
vn 0.4442 -0.4592 -0.7693
vn 0.0935 -0.8425 -0.5305
vn 0.1543 -0.4592 -0.8748
vn -0.0935 -0.8425 -0.5305
vn -0.1543 -0.4592 -0.8748
vn -0.2693 -0.8425 -0.4665
vn -0.4442 -0.4592 -0.7693
vn -0.4126 -0.8425 -0.3462
vn -0.6805 -0.4592 -0.5710
vn -0.5062 -0.8425 -0.1842
vn -0.8348 -0.4592 -0.3038
vn -0.5387 -0.8425 -0.0000
vn -0.8883 -0.4592 -0.0000
vn -0.5062 -0.8425 0.1842
vn -0.8348 -0.4592 0.3038
vn -0.4126 -0.8425 0.3462
vn -0.6805 -0.4592 0.5710
vn -0.2693 -0.8425 0.4665
vn -0.4442 -0.4592 0.7693
vn -0.0935 -0.8425 0.5305
vn -0.1543 -0.4592 0.8748
vn 0.0935 -0.8425 0.5305
vn 0.1543 -0.4592 0.8748
vn 0.2693 -0.8425 0.4665
vn 0.4442 -0.4592 0.7693
vn 0.4126 -0.8425 0.3462
vn 0.6805 -0.4592 0.5710
vn 0.5062 -0.8425 0.1842
vn 0.8348 -0.4592 0.3038
vn 0.9397 -0.0000 -0.3420
vn 1.0000 -0.0000 0.0000
vn 0.7660 -0.0000 -0.6428
vn 0.5000 -0.0000 -0.8660
vn 0.1736 -0.0000 -0.9848
vn -0.1736 -0.0000 -0.9848
vn -0.5000 0.0000 -0.8660
vn -0.7660 -0.0000 -0.6428
vn -0.9397 -0.0000 -0.3420
vn -1.0000 0.0000 -0.0000
vn -0.9397 0.0000 0.3420
vn -0.7660 0.0000 0.6428
vn -0.5000 0.0000 0.8660
vn -0.1736 0.0000 0.9848
vn 0.1736 0.0000 0.9848
vn 0.5000 0.0000 0.8660
vn 0.7660 0.0000 0.6428
vn 0.9397 0.0000 0.3420
vn 0.0000 1.0000 -0.0000
# 56 vertex normals

vt 0.1953 0.0000 -0.3473
vt 0.0874 0.0000 -0.6527
vt 0.0292 0.0000 -0.8794
vt 0.7500 0.0000 1.0000
vt 0.0278 0.0000 -1.0000
vt 0.0833 0.0000 -1.0000
vt 0.3325 0.0000 -0.6527
vt 0.1891 0.0000 -0.8794
vt 0.4960 0.0000 -0.3473
vt 0.6600 0.0000 0.0000
vt 0.9126 0.0000 0.6527
vt 0.8047 0.0000 0.3473
vt 0.9708 0.0000 0.8794
vt 0.9722 0.0000 1.0000
vt 0.8611 0.0000 1.0000
vt 0.9167 0.0000 1.0000
vt 0.8056 0.0000 1.0000
vt 0.3400 0.0000 -0.0000
vt 0.8056 0.5000 1.0000
vt 0.7500 0.5000 1.0000
vt 0.8611 0.5000 1.0000
vt 0.9167 0.5000 1.0000
vt 0.9722 0.5000 1.0000
vt -0.0278 0.0000 1.0000
vt 0.0278 0.0000 1.0000
vt 0.0278 0.5000 1.0000
vt -0.0278 0.5000 1.0000
vt 0.0833 0.0000 1.0000
vt 0.0833 0.5000 1.0000
vt 0.1389 0.0000 1.0000
vt 0.1389 0.5000 1.0000
vt 0.1944 0.0000 1.0000
vt 0.1944 0.5000 1.0000
vt 0.2500 0.0000 1.0000
vt 0.2500 0.5000 1.0000
vt 0.3056 0.0000 1.0000
vt 0.3056 0.5000 1.0000
vt 0.3611 0.0000 1.0000
vt 0.3611 0.5000 1.0000
vt 0.4167 0.0000 1.0000
vt 0.4167 0.5000 1.0000
vt 0.4722 0.0000 1.0000
vt 0.4722 0.5000 1.0000
vt 0.5278 0.0000 1.0000
vt 0.5278 0.5000 1.0000
vt 0.5833 0.0000 1.0000
vt 0.5833 0.5000 1.0000
vt 0.6389 0.0000 1.0000
vt 0.6389 0.5000 1.0000
vt 0.6944 0.0000 1.0000
vt 0.6944 0.5000 1.0000
vt 0.8056 1.0000 1.0000
vt 0.7500 1.0000 1.0000
vt 0.8611 1.0000 1.0000
vt 0.9167 1.0000 1.0000
vt 0.9722 1.0000 1.0000
vt 0.0278 1.0000 1.0000
vt -0.0278 1.0000 1.0000
vt 0.0833 1.0000 1.0000
vt 0.1389 1.0000 1.0000
vt 0.1944 1.0000 1.0000
vt 0.2500 1.0000 1.0000
vt 0.3056 1.0000 1.0000
vt 0.3611 1.0000 1.0000
vt 0.4167 1.0000 1.0000
vt 0.4722 1.0000 1.0000
vt 0.5278 1.0000 1.0000
vt 0.5833 1.0000 1.0000
vt 0.6389 1.0000 1.0000
vt 0.6944 1.0000 1.0000
vt 0.1953 1.0000 -0.3473
vt 0.9126 1.0000 0.6527
vt 0.9708 1.0000 0.8794
vt 0.8047 1.0000 0.3473
vt 0.6600 1.0000 0.0000
vt 0.3325 1.0000 -0.6527
vt 0.4960 1.0000 -0.3473
vt 0.1891 1.0000 -0.8794
vt 0.0833 1.0000 -1.0000
vt 0.0292 1.0000 -0.8794
vt 0.0278 1.0000 -1.0000
vt 0.0874 1.0000 -0.6527
# 82 texture coords

g Cylinder001
usemtl 01___Default
s 1
f 241/25/41 242/26/41 243/27/41 244/28/41 
f 243/27/41 245/29/41 246/30/41 247/31/41 
f 246/30/41 248/32/41 247/31/41 
f 247/31/41 249/33/41 250/34/41 251/35/41 
f 250/34/41 252/36/41 251/35/41 
f 251/35/41 253/37/41 254/38/41 255/39/41 
f 254/38/41 256/40/41 255/39/41 
f 247/31/41 251/35/41 255/39/41 243/27/41 
f 255/39/41 257/41/41 244/28/41 243/27/41 
f 258/42/41 241/25/41 244/28/41 
s 8
f 244/28/42 257/41/43 259/43/44 260/44/45 
f 257/41/43 255/39/46 261/45/47 259/43/44 
f 255/39/46 256/40/48 262/46/49 261/45/47 
f 256/40/48 254/38/50 263/47/51 262/46/49 
f 254/48/50 253/49/52 264/50/53 263/51/51 
f 253/49/52 251/52/54 265/53/55 264/50/53 
f 251/52/54 252/54/56 266/55/57 265/53/55 
f 252/54/56 250/56/58 267/57/59 266/55/57 
f 250/56/58 249/58/60 268/59/61 267/57/59 
f 249/58/60 247/60/62 269/61/63 268/59/61 
f 247/60/62 248/62/64 270/63/65 269/61/63 
f 248/62/64 246/64/66 271/65/67 270/63/65 
f 246/64/66 245/66/68 272/67/69 271/65/67 
f 245/66/68 243/68/70 273/69/71 272/67/69 
f 243/68/70 242/70/72 274/71/73 273/69/71 
f 242/70/72 241/72/74 275/73/75 274/71/73 
f 241/72/74 258/74/76 276/75/77 275/73/75 
f 258/74/76 244/28/42 260/44/45 276/75/77 
usemtl 02___Default
f 260/44/45 259/43/44 277/76/78 278/77/79 
f 259/43/44 261/45/47 279/78/80 277/76/78 
f 261/45/47 262/46/49 280/79/81 279/78/80 
f 262/46/49 263/47/51 281/80/82 280/79/81 
f 263/51/51 264/50/53 282/81/83 281/82/82 
f 264/50/53 265/53/55 283/83/84 282/81/83 
f 265/53/55 266/55/57 284/84/85 283/83/84 
f 266/55/57 267/57/59 285/85/86 284/84/85 
f 267/57/59 268/59/61 286/86/87 285/85/86 
f 268/59/61 269/61/63 287/87/88 286/86/87 
f 269/61/63 270/63/65 288/88/89 287/87/88 
f 270/63/65 271/65/67 289/89/90 288/88/89 
f 271/65/67 272/67/69 290/90/91 289/89/90 
f 272/67/69 273/69/71 291/91/92 290/90/91 
f 273/69/71 274/71/73 292/92/93 291/91/92 
f 274/71/73 275/73/75 293/93/94 292/92/93 
f 275/73/75 276/75/77 294/94/95 293/93/94 
f 276/75/77 260/44/45 278/77/79 294/94/95 
usemtl 01___Default
s 1
f 278/77/96 277/76/96 279/78/96 293/95/96 
f 279/78/96 280/79/96 281/80/96 283/96/96 
f 281/80/96 282/97/96 283/96/96 
f 283/96/96 284/98/96 285/99/96 287/100/96 
f 285/99/96 286/101/96 287/100/96 
f 287/100/96 288/102/96 289/103/96 291/104/96 
f 289/103/96 290/105/96 291/104/96 
f 283/96/96 287/100/96 291/104/96 279/78/96 
f 291/104/96 292/106/96 293/95/96 279/78/96 
f 294/94/96 278/77/96 293/95/96 
# 48 polygons - 8 triangles

