# 3ds Max Wavefront OBJ Exporter v0.97b - (c)2007 guruware
# File Created: 31.03.2021 01:17:52

mtllib forks.mtl

#
# object Box009
#

v  -1.2707 0.0286 2.1078
v  -1.2082 0.0286 -2.6823
v  -0.9063 0.0286 -2.6823
v  -0.8492 0.0286 2.1078
v  -1.2707 0.0743 2.1078
v  -0.8492 0.0743 2.1078
v  -0.9063 0.0743 -2.6823
v  -1.2082 0.0743 -2.6823
v  0.8836 0.0286 2.1078
v  0.9407 0.0286 -2.6823
v  1.2426 0.0286 -2.6823
v  1.3051 0.0286 2.1078
v  0.8836 0.0743 2.1078
v  1.3051 0.0743 2.1078
v  1.2426 0.0743 -2.6823
v  0.9407 0.0743 -2.6823
v  -1.3167 0.0090 2.1847
v  -1.3167 0.0090 2.0421
v  1.3469 0.0090 2.0421
v  1.3469 0.0090 2.1847
v  -1.3167 0.6392 2.1847
v  1.3469 0.6392 2.1847
v  1.3469 0.6392 2.0421
v  -1.3167 0.6392 2.0421
# 24 vertices

vn 0.0000 -1.0000 -0.0000
vn 0.0000 1.0000 0.0000
vn 0.0000 0.0000 1.0000
vn 1.0000 0.0000 -0.0088
vn 0.0000 0.0000 -1.0000
vn -1.0000 0.0000 -0.0097
vn 1.0000 0.0000 -0.0097
vn -1.0000 0.0000 -0.0088
vn 0.0000 1.0000 -0.0000
vn 1.0000 0.0000 -0.0000
vn -1.0000 0.0000 -0.0000
# 11 vertex normals

vt 0.1952 0.0000 0.0000
vt 0.1855 0.9983 0.0000
vt 0.1389 0.9983 0.0000
vt 0.1301 0.0000 0.0000
vt 0.2602 0.9983 0.0000
vt 0.1952 0.9983 0.0000
vt 0.2040 0.0000 0.0000
vt 0.2506 0.0000 0.0000
vt 0.2994 0.8221 0.0000
vt 0.2994 0.8871 0.0000
vt 0.2899 0.8871 0.0000
vt 0.2899 0.8221 0.0000
vt 0.4498 0.0000 0.0000
vt 0.4498 0.9983 0.0000
vt 0.4403 0.9983 0.0000
vt 0.4403 0.0000 0.0000
vt 0.4011 0.9534 0.0000
vt 0.4011 1.0000 0.0000
vt 0.3915 1.0000 0.0000
vt 0.3915 0.9534 0.0000
vt 0.4594 0.0000 0.0000
vt 0.4594 0.9983 0.0000
vt 0.0651 0.0000 0.0000
vt 0.0562 0.9983 0.0000
vt 0.0097 0.9983 0.0000
vt 0.0000 0.0000 0.0000
vt 0.1301 0.9983 0.0000
vt 0.0651 0.9983 0.0000
vt 0.0747 0.0000 0.0000
vt 0.1213 0.0000 0.0000
vt 0.4689 0.0000 0.0000
vt 0.4689 0.0651 0.0000
vt 0.4594 0.0651 0.0000
vt 0.4308 0.0000 0.0000
vt 0.4308 0.9983 0.0000
vt 0.4213 0.9983 0.0000
vt 0.4213 0.0000 0.0000
vt 0.2697 0.9534 0.0000
vt 0.2697 1.0000 0.0000
vt 0.2602 1.0000 0.0000
vt 0.2602 0.9534 0.0000
vt 0.3915 0.0000 0.0000
vt 0.4213 0.4110 0.0000
vt 0.3915 0.4110 0.0000
vt 0.4213 0.8221 0.0000
vt 0.3915 0.8221 0.0000
vt 0.2602 0.8221 0.0000
vt 0.2602 0.4110 0.0000
vt 0.4213 0.9534 0.0000
vt 0.2602 0.0000 0.0000
vt 0.2899 0.9534 0.0000
# 51 texture coords

g Box009
usemtl 08___Default
s 2
f 1/1/1 2/2/1 3/3/1 
f 3/3/1 4/4/1 1/1/1 
s 4
f 5/5/2 6/6/2 7/7/2 
f 7/7/2 8/8/2 5/5/2 
s 8
f 1/9/3 4/10/3 6/11/3 
f 6/11/3 5/12/3 1/9/3 
s 16
f 4/13/4 3/14/4 7/15/4 
f 7/15/4 6/16/4 4/13/4 
s 32
f 3/17/5 2/18/5 8/19/5 
f 8/19/5 7/20/5 3/17/5 
s 64
f 2/21/6 1/22/6 5/14/6 
f 5/14/6 8/13/6 2/21/6 
s 2
f 9/23/1 10/24/1 11/25/1 
f 11/25/1 12/26/1 9/23/1 
s 4
f 13/27/2 14/28/2 15/29/2 
f 15/29/2 16/30/2 13/27/2 
s 8
f 9/31/3 12/32/3 14/33/3 
f 14/33/3 13/21/3 9/31/3 
s 16
f 12/34/7 11/35/7 15/36/7 
f 15/36/7 14/37/7 12/34/7 
s 32
f 11/38/5 10/39/5 16/40/5 
f 16/40/5 15/41/5 11/38/5 
s 64
f 10/16/8 9/15/8 13/35/8 
f 13/35/8 16/34/8 10/16/8 
s 2
f 17/42/1 18/37/1 19/43/1 
f 19/43/1 20/44/1 17/42/1 
s 4
f 21/43/9 22/45/9 23/46/9 
f 23/46/9 24/44/9 21/43/9 
s 8
f 17/44/3 20/46/3 22/47/3 
f 22/47/3 21/48/3 17/44/3 
s 16
f 20/49/10 19/20/10 23/46/10 
f 23/46/10 22/45/10 20/49/10 
s 32
f 19/42/5 18/44/5 24/48/5 
f 24/48/5 23/50/5 19/42/5 
s 64
f 18/51/11 17/41/11 21/47/11 
f 21/47/11 24/12/11 18/51/11 
# 36 faces

